<?xml version="1.0" standalone="no"?>
<!DOCTYPE svg PUBLIC "-//W3C//DTD SVG 20010904//EN"
 "http://www.w3.org/TR/2001/REC-SVG-20010904/DTD/svg10.dtd">
<svg version="1.0" xmlns="http://www.w3.org/2000/svg"
 width="440.000000pt" height="419.000000pt" viewBox="0 0 440.000000 419.000000"
 preserveAspectRatio="xMidYMid meet">

<g transform="translate(0.000000,419.000000) scale(0.100000,-0.100000)"
fill="#000000" stroke="none">
<path d="M1950 3985 c-664 -83 -1228 -477 -1519 -1063 -145 -292 -203 -539
-203 -872 0 -337 62 -597 213 -890 198 -384 489 -666 884 -860 288 -141 570
-203 895 -195 460 11 867 165 1223 465 294 247 527 617 622 988 46 182 59 284
59 492 0 159 -4 219 -23 324 -110 622 -493 1138 -1053 1416 -347 172 -732 240
-1098 195z m445 -48 c22 -2 56 -4 75 -5 27 -2 31 -5 20 -12 -9 -6 -10 -10 -3
-10 6 0 20 -3 30 -6 15 -5 15 -4 3 5 -12 9 -10 11 12 11 15 0 33 -6 40 -12 7
-7 28 -13 46 -13 18 1 38 -5 44 -12 6 -7 16 -13 22 -13 6 0 4 5 -4 11 -12 9
-11 9 5 4 11 -4 44 -15 73 -24 29 -10 50 -20 47 -23 -3 -3 1 -8 10 -12 9 -3
13 -2 10 4 -9 15 11 12 24 -4 10 -12 27 -18 90 -32 8 -1 17 -8 21 -14 4 -7 10
-11 14 -10 4 1 20 -4 37 -10 22 -10 27 -15 17 -21 -8 -6 -2 -9 20 -9 17 0 32
-5 32 -10 0 -6 6 -10 13 -8 6 1 32 -10 56 -26 34 -22 41 -30 30 -38 -11 -8
-10 -9 3 -4 25 7 117 -54 118 -79 l1 -20 9 20 c7 17 9 17 9 3 1 -10 7 -18 15
-18 19 0 67 -40 61 -51 -4 -5 2 -6 11 -2 13 5 16 2 12 -9 -4 -10 -1 -15 10
-14 9 0 16 -5 14 -12 -1 -8 1 -11 6 -8 11 7 104 -89 94 -98 -4 -4 0 -6 8 -4 8
2 14 -3 13 -9 -2 -7 3 -12 10 -10 6 1 11 -4 9 -11 -1 -8 2 -11 8 -7 11 7 52
-54 44 -67 -3 -4 2 -5 10 -2 10 4 20 -3 27 -20 7 -14 16 -26 20 -26 5 0 6 -7
3 -15 -4 -8 -1 -15 6 -15 6 0 8 -4 5 -10 -3 -5 0 -8 7 -5 12 4 106 -130 133
-189 5 -11 14 -24 20 -28 5 -4 6 -8 1 -8 -4 0 -1 -11 8 -24 9 -14 13 -33 10
-43 -4 -13 -3 -14 3 -5 7 9 15 2 28 -28 10 -22 15 -43 12 -47 -4 -3 1 -15 10
-26 13 -15 14 -19 3 -13 -12 6 -12 5 1 -6 9 -7 14 -19 11 -27 -3 -9 0 -11 8
-6 9 6 11 4 5 -5 -4 -7 -3 -15 2 -19 15 -10 46 -120 40 -141 -3 -11 -1 -18 4
-14 9 5 14 -23 11 -59 -1 -12 2 -16 10 -11 8 5 9 2 5 -9 -3 -10 -3 -17 1 -17
4 0 9 -17 10 -37 2 -21 9 -82 17 -135 17 -110 19 -288 4 -393 -5 -38 -11 -86
-13 -105 -8 -73 -24 -144 -34 -148 -5 -1 -8 -12 -5 -23 3 -10 -1 -27 -8 -36
-12 -15 -12 -16 1 -8 13 8 13 7 1 -8 -7 -9 -10 -17 -5 -17 4 0 3 -5 -4 -12 -7
-7 -12 -22 -12 -35 0 -13 -5 -23 -11 -23 -6 0 -9 -6 -6 -14 3 -8 -1 -17 -9
-20 -8 -3 -14 -10 -14 -16 0 -6 4 -8 10 -5 6 3 7 -1 4 -9 -3 -9 -11 -16 -16
-16 -6 0 -8 -7 -4 -15 3 -8 1 -15 -5 -15 -6 0 -8 -4 -5 -9 8 -13 -126 -273
-143 -279 -8 -3 -11 0 -8 5 3 5 0 10 -8 10 -13 0 -13 -3 -1 -22 12 -19 11 -25
-21 -68 -19 -26 -39 -47 -43 -47 -4 0 -20 -20 -34 -44 -14 -24 -44 -63 -66
-86 -22 -23 -40 -46 -40 -52 0 -6 -7 -8 -15 -4 -8 3 -15 0 -15 -7 0 -7 -15
-29 -33 -49 -27 -30 -36 -34 -52 -26 -16 9 -18 8 -8 -2 10 -11 8 -17 -9 -32
-12 -10 -28 -16 -35 -13 -9 3 -13 -2 -11 -13 2 -11 -5 -18 -20 -20 -12 -2 -20
-7 -17 -12 7 -11 -83 -83 -95 -75 -5 3 -10 1 -10 -4 0 -16 -79 -63 -92 -55 -7
5 -8 3 -3 -6 6 -10 4 -12 -8 -7 -9 3 -19 1 -23 -5 -4 -7 -3 -8 4 -4 7 4 12 5
12 2 0 -10 -63 -35 -73 -29 -5 3 -7 1 -4 -4 9 -14 -40 -46 -55 -37 -7 4 -8 3
-4 -4 7 -11 -7 -16 -41 -15 -7 1 -13 -3 -13 -7 0 -9 -60 -34 -74 -31 -4 1 -15
-4 -23 -11 -21 -17 -84 -40 -110 -40 -13 0 -21 -4 -18 -8 6 -10 -51 -21 -72
-13 -9 4 -14 2 -11 -3 4 -5 -8 -10 -24 -11 -17 -1 -36 -7 -44 -14 -7 -6 -19
-9 -26 -6 -7 2 -21 0 -32 -5 -13 -7 -16 -7 -12 1 4 6 3 11 -3 11 -5 0 -11 -5
-13 -10 -5 -15 -152 -26 -331 -24 -232 2 -249 3 -243 13 4 5 -3 7 -14 4 -11
-3 -27 0 -35 7 -12 10 -15 10 -15 0 0 -9 -4 -10 -13 -2 -7 6 -22 11 -32 10
-11 0 -40 5 -65 11 -25 6 -56 14 -70 17 -54 11 -130 38 -130 46 0 5 -5 6 -10
3 -6 -4 -16 -2 -23 3 -7 5 -34 18 -62 28 -69 25 -96 40 -88 47 3 4 -4 7 -16 7
-12 0 -40 12 -64 27 -23 14 -44 26 -47 25 -3 -1 -13 5 -23 13 -9 8 -17 12 -17
9 0 -3 -20 9 -45 26 -25 17 -45 33 -45 36 0 3 4 2 10 -1 5 -3 7 0 4 8 -2 7
-11 14 -19 14 -8 0 -12 -4 -9 -9 3 -4 -2 -5 -10 -2 -9 3 -16 10 -16 15 0 5 -7
9 -16 9 -8 0 -12 4 -9 10 3 5 1 10 -6 10 -8 0 -7 5 2 18 13 15 12 16 -3 4 -15
-12 -22 -11 -48 8 -17 12 -28 26 -24 31 3 5 0 8 -7 7 -7 -2 -13 2 -14 9 0 6
-4 15 -9 20 -5 5 -6 2 -1 -6 5 -9 3 -12 -6 -9 -8 3 -13 12 -13 21 1 8 -4 13
-10 11 -13 -5 -101 83 -101 101 0 5 -4 10 -10 10 -15 0 -36 15 -31 23 2 4 -8
18 -22 32 -16 16 -20 18 -11 5 13 -18 13 -19 -3 -7 -10 8 -14 20 -11 29 4 10
2 14 -4 10 -6 -4 -16 7 -23 23 -7 17 -19 30 -26 30 -8 0 -14 7 -14 15 0 8 -6
15 -12 15 -9 0 -8 4 2 10 13 8 12 10 -2 10 -10 0 -18 7 -18 15 0 7 -6 18 -13
22 -18 11 -52 66 -49 79 1 7 -4 14 -12 17 -14 6 -59 91 -59 113 0 7 -4 11 -9
8 -4 -3 -9 1 -9 8 -1 7 -2 18 -4 23 -1 6 -3 16 -3 23 -1 7 -6 10 -12 7 -5 -3
-10 1 -10 9 0 9 -9 32 -20 52 -12 20 -19 39 -16 42 3 3 1 11 -5 19 -6 7 -8 13
-4 13 4 0 2 7 -5 15 -7 8 -9 15 -6 15 4 0 0 10 -8 22 -9 12 -16 37 -16 55 0
18 -4 33 -9 33 -5 0 -12 21 -17 48 -8 52 -10 61 -14 65 -5 4 -11 51 -14 97 -1
25 -7 63 -13 85 -19 74 -4 523 17 510 4 -3 10 2 14 10 3 8 1 17 -5 21 -5 3 -8
13 -5 22 3 10 8 33 11 52 8 51 46 182 58 205 6 11 10 23 9 28 -1 4 2 7 7 7 4
0 8 8 8 18 0 35 3 43 15 36 6 -4 8 -3 5 4 -10 14 3 43 15 36 6 -4 8 1 4 14 -4
13 1 29 16 48 13 16 30 47 37 69 8 22 21 46 30 53 13 11 13 12 1 7 -13 -6 -13
-5 0 7 8 7 16 19 18 27 5 24 43 72 52 66 4 -3 11 2 14 11 4 9 2 13 -5 8 -7 -4
-7 1 1 15 6 12 18 25 26 28 7 3 12 9 9 13 -5 8 12 31 66 91 15 16 35 40 45 53
15 21 21 23 38 14 19 -10 20 -9 8 5 -12 14 -9 22 24 61 22 27 42 42 51 39 8
-3 13 -1 11 4 -5 15 56 70 71 65 8 -3 11 0 7 6 -6 10 51 62 68 62 4 0 21 14
39 30 18 17 38 28 45 25 7 -3 11 -1 8 4 -3 5 2 15 11 22 14 12 16 12 9 -1 -5
-9 -2 -8 7 2 11 14 16 15 26 5 10 -9 11 -8 5 7 -5 13 -4 17 4 12 7 -4 12 -2
12 4 0 6 5 8 10 5 6 -3 10 -2 10 3 0 10 66 53 86 56 7 1 18 7 26 14 25 20 122
59 137 54 9 -3 11 0 6 8 -6 10 -4 12 7 7 9 -3 19 -2 24 3 15 14 146 60 155 54
5 -3 9 -1 9 4 0 5 6 9 13 10 6 0 30 4 51 8 31 6 37 4 31 -6 -5 -9 -4 -11 4 -6
6 4 9 11 6 16 -7 12 50 23 76 15 16 -5 19 -4 14 5 -6 10 0 12 25 7 18 -4 38
-3 44 2 6 5 32 12 56 14 45 4 341 0 415 -6z"/>
<path d="M2034 3838 c-16 -5 -43 -7 -61 -4 -17 2 -52 -2 -77 -9 -25 -8 -59
-12 -76 -10 -21 3 -28 1 -24 -7 5 -8 2 -9 -9 -5 -10 3 -17 2 -17 -2 0 -5 -21
-12 -47 -15 -94 -12 -106 -14 -113 -26 -5 -8 -18 -10 -36 -6 -19 4 -24 3 -15
-3 11 -7 8 -11 -10 -17 -13 -4 -26 -8 -29 -9 -3 0 -40 -17 -84 -38 -43 -20
-89 -40 -102 -43 -13 -3 -24 -11 -24 -16 0 -6 -9 -8 -20 -5 -11 3 -23 0 -27
-5 -3 -7 -1 -8 5 -4 7 4 12 3 12 -2 0 -6 -7 -13 -16 -16 -22 -9 -26 -8 -18 6
4 7 3 8 -5 4 -6 -4 -9 -11 -6 -16 7 -11 -64 -54 -86 -53 -13 1 -16 -3 -12 -15
3 -9 3 -14 -1 -10 -5 4 -20 -4 -35 -18 -14 -13 -32 -22 -40 -19 -9 4 -11 0 -7
-11 6 -15 4 -15 -11 -3 -15 12 -16 12 -10 -3 4 -12 -8 -28 -41 -55 -26 -21
-68 -60 -94 -86 -26 -27 -52 -46 -57 -42 -6 3 -9 0 -6 -7 3 -7 -5 -24 -17 -38
-13 -14 -19 -20 -14 -13 6 10 4 12 -8 7 -9 -3 -16 -14 -16 -24 0 -10 -12 -28
-26 -39 -15 -12 -21 -21 -15 -21 7 0 9 -5 6 -10 -4 -6 -12 -7 -18 -4 -7 4 -9
4 -5 -1 4 -4 -10 -28 -33 -52 -22 -24 -37 -48 -34 -53 3 -6 1 -10 -4 -10 -6 0
-10 -6 -8 -12 1 -7 -4 -12 -11 -10 -8 1 -11 -2 -7 -8 3 -5 1 -19 -6 -31 -9
-17 -13 -19 -20 -8 -7 11 -9 10 -10 -6 -1 -11 -2 -26 -2 -33 1 -7 -5 -11 -12
-8 -9 3 -12 -3 -10 -20 1 -15 -5 -33 -17 -43 -11 -11 -16 -25 -12 -34 3 -10 2
-17 -3 -17 -4 0 -14 -9 -21 -21 -8 -12 -9 -18 -3 -15 7 5 8 1 5 -9 -5 -13 -9
-13 -22 -3 -13 11 -14 10 -4 -8 9 -16 8 -25 -3 -40 -8 -11 -15 -29 -15 -41 0
-28 -10 -54 -19 -49 -4 3 -8 -5 -8 -17 -2 -17 0 -19 7 -7 6 9 10 10 10 3 0 -6
-7 -19 -15 -27 -9 -9 -15 -21 -14 -28 4 -33 -2 -59 -12 -53 -7 5 -9 -3 -6 -24
3 -17 2 -31 -2 -31 -4 0 -8 -6 -8 -12 -4 -71 -15 -196 -20 -208 -10 -28 -13
-294 -4 -300 10 -6 21 -92 24 -192 1 -31 5 -54 8 -52 11 6 18 -22 12 -48 -4
-18 -3 -20 6 -8 9 13 11 11 12 -7 1 -13 3 -27 4 -33 1 -5 3 -22 4 -36 0 -14 5
-23 10 -20 8 5 36 -79 33 -96 -1 -5 2 -8 7 -8 14 0 33 -57 27 -82 -3 -13 -3
-17 0 -10 4 9 12 4 25 -18 11 -17 16 -37 13 -43 -4 -7 -4 -9 1 -5 11 10 47
-60 39 -75 -4 -7 -3 -9 1 -4 10 8 46 -43 39 -54 -2 -4 1 -11 7 -15 8 -5 9 -3
4 7 -5 9 -5 11 2 4 6 -5 26 -38 44 -72 18 -35 39 -63 46 -63 7 0 10 -6 7 -14
-3 -8 0 -17 7 -22 8 -5 10 -3 4 7 -4 8 5 2 19 -14 15 -15 25 -31 22 -35 -2 -4
0 -14 6 -22 8 -12 8 -11 3 5 -4 12 11 2 37 -25 25 -27 39 -48 33 -52 -6 -4 -2
-8 8 -8 9 0 17 -5 17 -12 0 -6 2 -9 5 -6 5 5 46 -28 113 -90 19 -17 39 -32 45
-32 5 0 7 -7 4 -14 -4 -9 -1 -13 6 -10 7 2 21 -3 32 -12 11 -8 13 -12 5 -8 -9
4 -12 3 -7 -2 5 -5 12 -9 15 -9 12 -1 97 -55 87 -55 -14 -1 43 -31 68 -35 11
-3 23 -8 26 -12 3 -5 18 -14 34 -20 15 -7 27 -17 27 -22 0 -5 8 -8 18 -6 9 1
24 -3 32 -11 8 -7 20 -13 25 -14 6 -1 26 -9 45 -17 19 -9 41 -15 49 -14 8 2
10 -2 5 -10 -5 -9 -2 -10 9 -6 10 3 17 3 17 -2 0 -4 6 -8 13 -8 6 -1 75 -17
152 -37 77 -20 172 -40 210 -44 126 -12 538 -5 529 9 -6 10 48 18 80 12 19 -4
27 -2 22 5 -7 11 54 29 122 35 12 1 22 5 22 8 0 9 51 23 75 20 15 -1 17 0 7 7
-11 7 -7 11 13 16 14 4 31 4 37 0 7 -4 8 -3 4 4 -4 7 4 14 21 18 28 7 42 13
119 53 23 11 44 18 48 14 3 -3 6 -2 6 4 0 17 68 53 88 47 13 -4 14 -3 4 4 -13
9 13 30 80 67 10 5 18 13 18 17 0 4 7 4 17 1 10 -4 14 -2 10 5 -4 6 7 21 25
33 18 13 34 27 36 31 2 4 10 4 19 1 10 -4 14 -2 10 4 -10 16 112 133 132 126
13 -4 13 -3 2 5 -11 8 -11 11 0 18 8 5 19 9 24 9 6 1 9 7 7 13 -3 17 25 45 37
38 5 -3 7 3 4 14 -3 12 0 20 6 20 7 0 9 -6 5 -13 -4 -7 -3 -9 2 -4 5 5 10 13
10 18 1 5 2 12 3 17 0 4 11 19 24 33 12 14 27 34 34 45 6 10 16 18 22 17 6 -2
8 4 5 12 -4 9 10 35 32 62 22 26 38 52 36 59 -3 14 53 116 60 109 3 -3 8 1 12
10 3 9 2 13 -4 10 -6 -3 -7 1 -4 9 3 9 10 13 15 10 5 -3 6 2 3 10 -3 9 -1 16
5 16 6 0 10 3 10 8 -4 22 2 42 11 37 5 -3 8 0 5 7 -3 7 6 45 19 83 14 39 25
66 26 60 1 -16 20 18 19 35 0 10 -3 9 -10 -5 -8 -17 -8 -16 -3 5 3 14 11 49
17 78 7 37 14 51 24 48 11 -4 11 -1 2 15 -7 15 -8 34 0 67 11 51 25 211 24
282 0 25 -4 79 -10 120 -7 54 -7 77 1 82 7 5 7 8 -3 8 -10 0 -12 9 -7 38 4 20
3 32 -2 25 -5 -8 -13 15 -21 60 -7 40 -19 92 -27 116 -8 24 -13 50 -10 57 3 7
0 14 -6 16 -6 2 -11 19 -10 38 1 25 -2 30 -8 20 -6 -9 -10 -10 -10 -3 0 6 5
15 10 18 6 3 10 14 9 23 0 14 -2 13 -8 -3 -8 -19 -8 -19 -20 3 -7 12 -9 28 -5
34 4 7 3 8 -4 4 -7 -4 -13 -1 -14 6 0 7 -2 18 -3 23 -2 6 -3 19 -4 29 0 11 -4
16 -7 13 -7 -7 -54 87 -54 107 0 7 -9 21 -19 33 -10 11 -26 33 -34 50 -9 16
-23 35 -31 42 -9 7 -14 17 -11 21 2 4 -4 15 -15 25 -21 19 -28 41 -8 29 7 -4
8 -3 4 5 -4 6 -11 9 -16 6 -13 -8 -69 75 -63 94 4 12 3 13 -5 3 -7 -10 -17 -4
-45 29 -20 23 -34 46 -30 52 4 6 1 7 -6 2 -13 -7 -79 61 -74 77 2 4 -3 5 -10
2 -7 -2 -32 16 -57 41 -24 25 -49 45 -56 45 -16 0 -45 35 -37 45 5 4 2 5 -5 1
-14 -8 -65 28 -54 39 4 4 0 5 -8 4 -14 -3 -56 20 -92 51 -10 8 -37 22 -60 31
-24 8 -42 20 -41 25 1 5 -10 10 -23 10 -14 1 -33 9 -43 18 -10 9 -27 16 -39
16 -12 0 -22 4 -22 9 0 5 -16 12 -35 15 -20 4 -33 11 -30 16 3 4 -4 6 -15 3
-11 -3 -20 0 -20 6 0 6 -10 11 -22 11 -12 0 -30 8 -41 18 -11 9 -17 11 -13 4
6 -10 1 -11 -21 -6 -15 4 -35 10 -44 15 -9 5 -19 5 -23 2 -3 -3 -14 1 -24 10
-13 12 -28 15 -57 10 -23 -4 -36 -2 -32 3 6 11 -13 14 -102 15 -38 1 -58 5
-50 10 17 10 -259 7 -297 -3z m394 -63 c650 -98 1190 -549 1397 -1167 147
-439 117 -897 -85 -1313 -168 -346 -422 -605 -773 -789 -476 -250 -1061 -257
-1557 -18 -191 92 -341 203 -502 371 -229 239 -380 530 -450 866 -19 94 -22
141 -23 325 0 224 5 270 52 450 139 539 546 986 1076 1184 102 38 222 70 347
91 107 18 399 18 518 0z"/>
<path d="M2250 3707 c0 -15 -18 -178 -25 -234 -6 -42 -6 -43 24 -43 29 0 30 2
33 52 l3 52 45 -2 c34 -3 52 2 72 17 48 38 45 113 -4 144 -32 20 -148 31 -148
14z m123 -64 c12 -7 8 -40 -7 -52 -7 -6 -27 -8 -45 -5 -27 6 -32 10 -27 28 3
12 6 27 6 34 0 10 9 12 33 7 17 -4 35 -9 40 -12z"/>
<path d="M1970 3690 c-26 -26 -35 -66 -21 -96 9 -22 43 -42 94 -58 27 -9 33
-37 11 -53 -13 -9 -31 -12 -56 -8 -35 6 -38 5 -38 -18 0 -29 16 -37 70 -37 55
0 94 35 93 83 -1 48 -7 56 -70 83 -45 20 -54 28 -51 47 2 18 10 23 41 25 20 2
37 7 37 12 0 5 3 15 6 24 10 26 -90 22 -116 -4z"/>
<path d="M1708 3654 c-27 -8 -48 -17 -48 -20 0 -7 73 -268 76 -272 1 -2 31 5
66 16 42 13 64 25 66 37 6 28 -11 35 -52 24 -30 -8 -41 -8 -47 3 -18 27 -10
48 21 55 36 7 41 13 33 42 -6 22 -19 23 -66 5 -10 -3 -18 5 -25 26 -11 30 -11
30 34 42 31 9 43 17 39 26 -3 7 -5 18 -5 23 0 13 -37 10 -92 -7z"/>
<path d="M2599 3615 c-53 -29 -86 -114 -69 -177 20 -72 115 -122 190 -99 119
36 137 222 27 274 -42 21 -113 21 -148 2z m116 -51 c42 -19 58 -59 44 -109
-18 -63 -95 -85 -146 -41 -50 43 -32 130 32 157 29 11 33 11 70 -7z"/>
<path d="M2918 3373 c-58 -88 -74 -120 -66 -130 18 -22 37 -14 63 28 36 56 50
46 50 -36 0 -58 3 -69 22 -82 21 -14 21 -13 28 51 7 62 9 66 32 66 34 0 83 51
83 87 0 16 -7 38 -15 50 -12 18 -104 83 -116 83 -2 0 -39 -53 -81 -117z m130
21 c47 -33 9 -89 -39 -57 -13 9 -26 18 -28 19 -6 5 28 54 37 54 4 0 18 -7 30
-16z"/>
<path d="M1288 3465 c-51 -28 -64 -93 -29 -136 17 -21 26 -24 85 -22 52 2 68
0 73 -12 8 -21 -23 -52 -58 -60 -33 -7 -35 -13 -16 -39 12 -16 18 -17 49 -7
76 25 108 105 60 153 -18 18 -31 21 -87 20 -51 -2 -67 1 -72 13 -6 18 23 55
44 55 19 0 13 44 -7 47 -8 1 -27 -4 -42 -12z"/>
<path d="M3234 3286 c-19 -15 -18 -16 9 -43 l27 -28 -82 -82 c-82 -82 -82 -82
-63 -103 16 -17 21 -19 30 -8 5 7 43 44 83 82 l72 69 25 -23 c24 -23 25 -23
45 -5 21 19 20 19 -47 87 -37 37 -70 68 -73 68 -4 0 -15 -7 -26 -14z"/>
<path d="M1931 3239 c-94 -20 -230 -68 -312 -109 -63 -32 -186 -116 -243 -166
-30 -26 -72 -50 -105 -61 -75 -23 -91 -41 -91 -103 0 -43 -8 -64 -50 -133 -57
-96 -111 -230 -142 -354 -29 -120 -31 -377 -4 -503 51 -238 168 -450 338 -616
205 -200 431 -311 697 -345 44 -5 96 -16 117 -25 33 -14 41 -14 73 0 20 8 76
20 124 26 599 74 1058 595 1057 1200 -1 226 -60 436 -179 634 -41 68 -51 94
-51 129 0 51 -6 58 -78 86 -29 12 -88 50 -132 85 -141 115 -300 196 -478 243
-83 22 -123 26 -272 29 -147 3 -190 0 -269 -17z m599 -290 c150 -21 331 -63
460 -107 l85 -29 1 -354 c0 -195 -2 -375 -4 -401 l-4 -48 -74 0 -74 0 0 -227
c0 -259 0 -259 -86 -373 -58 -78 -52 -71 -139 -160 l-70 -72 -5 414 -5 413
-59 3 c-64 3 -90 21 -80 55 6 20 -21 57 -42 57 -37 0 -21 135 26 237 16 34 32
73 36 87 5 23 11 26 49 26 24 0 47 5 50 10 3 6 17 10 30 10 29 0 45 41 45 117
0 45 -4 58 -26 78 -27 25 -121 65 -153 65 -10 0 -23 11 -29 25 -13 29 -30 32
-39 8 -4 -10 -11 -21 -17 -25 -16 -11 -56 -10 -56 2 0 19 -41 33 -66 21 -26
-12 -33 -58 -12 -79 14 -14 0 -33 -60 -74 -31 -21 -71 -35 -140 -49 -53 -11
-125 -33 -159 -49 -71 -33 -154 -105 -188 -165 -32 -54 -60 -164 -46 -178 6
-6 11 -26 11 -43 0 -18 11 -54 25 -81 23 -46 23 -48 5 -51 -19 -3 -20 -15 -20
-410 l-1 -407 -81 85 c-45 47 -112 132 -150 190 l-68 105 0 217 0 218 -65 0
-65 0 0 403 0 404 118 36 c386 120 755 151 1142 96z m-202 -191 c7 -7 12 -17
12 -22 0 -8 -3 -7 -8 0 -4 6 -16 16 -27 22 -15 8 -16 11 -4 12 8 0 20 -5 27
-12z m203 -38 c72 -22 104 -41 120 -73 l12 -22 -25 23 c-13 12 -29 22 -36 22
-6 0 -27 9 -46 21 -20 12 -36 16 -36 10 0 -6 5 -11 11 -11 5 0 7 -5 3 -12 -4
-6 -3 -8 4 -4 16 10 44 -23 37 -44 -6 -19 26 -46 39 -33 8 8 8 -15 0 -44 -4
-15 -18 -26 -43 -33 -51 -14 -71 -13 -65 4 4 11 -3 12 -42 4 -34 -7 -63 -7
-97 1 -27 6 -53 11 -58 11 -19 0 -8 -48 17 -71 22 -20 25 -30 21 -62 -6 -43
-32 -78 -52 -71 -31 12 -54 -140 -31 -206 15 -45 -51 35 -86 103 -26 53 -30
69 -25 114 3 31 2 53 -4 53 -14 0 -29 -45 -29 -86 0 -24 -5 -34 -15 -34 -25 0
-155 -69 -162 -85 -3 -8 -11 -15 -17 -15 -9 0 -13 -22 -13 -72 -1 -79 -10
-113 -49 -170 -41 -59 -52 -56 -52 13 0 49 -5 67 -31 105 -17 26 -33 62 -37
80 -3 19 -12 34 -20 34 -40 0 -23 123 28 202 64 101 161 157 323 188 82 16
143 44 187 87 20 19 41 33 46 29 5 -3 22 10 36 29 24 31 32 35 75 35 27 0 77
-9 112 -20z m116 -167 c-3 -10 -5 -2 -5 17 0 19 2 27 5 18 2 -10 2 -26 0 -35z
m-181 -140 c-19 -58 -59 -118 -87 -134 -15 -7 -9 6 21 46 23 31 49 77 57 101
8 25 17 43 20 40 3 -3 -2 -26 -11 -53z m-60 -218 c-1 -52 -5 -84 -11 -81 -16
5 -8 166 8 166 2 0 3 -38 3 -85z m-78 -14 c18 -57 16 -62 -15 -55 -16 4 -31
12 -35 18 -12 18 -9 64 5 69 26 11 34 6 45 -32z m-140 -26 c18 -38 15 -51 -14
-64 -15 -6 -28 -10 -29 -9 -5 5 19 98 26 98 3 0 11 -11 17 -25z m-56 -47 c-6
-6 -7 0 -4 19 5 21 7 23 10 9 2 -10 0 -22 -6 -28z m88 -31 c0 -19 -29 -42 -65
-54 -21 -7 -34 -20 -44 -48 -14 -36 -14 -39 7 -55 22 -18 51 -104 39 -116 -25
-25 -70 52 -70 121 0 42 26 105 44 105 6 0 24 14 39 30 30 32 50 39 50 17z
m183 -7 c14 -11 29 -20 34 -20 11 0 49 -59 57 -90 4 -14 -5 -4 -19 23 -29 54
-44 61 -37 17 3 -24 0 -31 -19 -39 -25 -9 -79 13 -79 34 0 5 -3 20 -6 33 -5
18 -2 22 16 22 17 0 21 4 17 20 -3 11 -2 20 3 20 4 0 19 -9 33 -20z m-129 -28
c12 17 14 17 30 0 41 -46 -6 -98 -71 -80 -27 7 -33 14 -33 35 0 15 8 35 17 45
17 19 18 19 31 1 13 -17 14 -17 26 -1z m-300 -16 c-3 -9 -10 -16 -15 -16 -6 0
-5 9 1 21 13 24 24 20 14 -5z m88 -107 c-4 -71 14 -128 56 -175 44 -50 88 -68
185 -73 5 -1 7 -37 5 -81 l-3 -80 38 0 37 0 0 -55 c0 -51 -2 -55 -23 -55 -15
0 -28 9 -35 23 -10 20 -11 21 -11 2 -1 -17 -3 -18 -11 -5 -7 10 -13 11 -17 5
-9 -12 -73 -15 -73 -3 0 4 -4 8 -10 8 -5 0 -10 -7 -10 -15 0 -12 14 -15 65
-15 51 0 65 -3 65 -15 0 -8 -6 -15 -12 -16 -10 0 -10 -2 0 -6 15 -6 17 -153 2
-153 -6 0 -6 -9 0 -26 16 -41 13 -44 -54 -44 -61 0 -63 -1 -63 -25 0 -14 4
-28 10 -32 5 -3 7 -1 3 5 -3 6 -2 13 4 17 6 4 7 12 3 18 -4 7 0 7 10 -1 9 -8
22 -10 29 -6 7 5 23 10 36 12 21 3 22 0 22 -78 l0 -80 -65 -30 c-36 -17 -69
-30 -74 -30 -5 0 -43 16 -84 35 -90 42 -84 17 -77 318 3 120 3 221 0 225 -3 4
-4 114 -2 244 2 214 4 237 20 241 35 10 37 7 34 -54z m304 23 c-4 -3 -14 2
-24 12 -16 18 -16 18 6 6 13 -6 21 -14 18 -18z m-98 -19 c29 -39 -2 -103 -49
-103 -28 0 -38 11 -59 64 -20 55 71 88 108 39z m200 10 c6 -11 5 -35 -2 -63
-9 -38 -15 -46 -37 -48 -35 -4 -55 40 -39 83 18 47 61 62 78 28z m16 -115
c-25 -55 -28 -41 -7 31 14 50 19 57 21 35 2 -15 -4 -44 -14 -66z m-102 16 c19
-40 -9 -78 -61 -82 -35 -3 -42 0 -54 24 -13 26 -13 31 6 56 16 22 29 28 59 28
32 0 41 -5 50 -26z m-219 -73 l45 -38 103 4 c84 3 99 1 79 -8 -14 -6 -60 -12
-102 -12 -67 -1 -82 3 -117 26 -34 23 -72 67 -57 67 3 0 25 -17 49 -39z"/>
<path d="M2376 2697 c-16 -12 -15 -14 7 -35 18 -17 31 -21 51 -16 32 8 34 28
4 48 -27 19 -39 20 -62 3z"/>
<path d="M2228 2557 c-16 -13 -28 -26 -28 -30 0 -15 28 -6 48 16 39 41 24 51
-20 14z"/>
<path d="M2235 2500 c-10 -11 -15 -23 -12 -27 8 -7 47 25 47 39 0 14 -16 9
-35 -12z"/>
<path d="M1995 2495 c-22 -8 -41 -15 -42 -15 -2 0 -3 -6 -3 -13 0 -11 11 -10
52 4 29 9 54 22 56 28 5 15 -14 13 -63 -4z"/>
<path d="M2223 2424 c-27 -30 -28 -34 -10 -34 16 0 47 32 47 48 0 19 -13 14
-37 -14z"/>
<path d="M1855 2410 c-10 -11 -16 -23 -12 -26 7 -7 57 25 57 37 0 16 -26 9
-45 -11z"/>
<path d="M2255 2390 c-29 -30 -30 -45 -3 -35 17 7 53 65 40 65 -4 0 -21 -13
-37 -30z"/>
<path d="M1980 2381 c-39 -21 -87 -68 -78 -77 3 -3 27 11 53 30 25 20 53 36
61 36 8 0 14 7 14 15 0 19 -7 18 -50 -4z"/>
<path d="M2031 2349 c-34 -13 -52 -29 -45 -40 6 -11 84 27 84 41 0 12 -7 12
-39 -1z"/>
<path d="M1793 2298 c-13 -17 -33 -77 -33 -99 0 -29 19 -22 25 9 4 15 13 42
21 60 8 18 14 35 14 37 0 10 -18 5 -27 -7z"/>
<path d="M1860 2168 c0 -34 11 -68 21 -68 5 0 9 10 9 23 0 33 -11 67 -21 67
-5 0 -9 -10 -9 -22z"/>
<path d="M2103 1473 c-8 -3 -13 -23 -13 -49 0 -42 1 -44 20 -34 15 8 20 21 20
50 0 40 -3 43 -27 33z m14 -25 c-3 -8 -6 -5 -6 6 -1 11 2 17 5 13 3 -3 4 -12
1 -19z"/>
<path d="M2195 1471 c-3 -5 -2 -12 3 -15 5 -3 9 1 9 9 0 17 -3 19 -12 6z"/>
<path d="M2220 1469 c0 -5 5 -7 10 -4 6 3 10 8 10 11 0 2 -4 4 -10 4 -5 0 -10
-5 -10 -11z"/>
<path d="M2190 1335 c0 -24 5 -35 15 -35 8 0 15 5 15 11 0 5 -5 7 -11 3 -7 -4
-10 -1 -7 6 2 8 10 16 18 18 7 3 10 0 6 -7 -8 -13 1 -13 29 -1 12 5 14 9 6 9
-11 1 -10 5 5 16 18 13 15 14 -28 15 l-48 0 0 -35z"/>
<path d="M2106 1328 c-22 -31 -20 -91 4 -119 l19 -24 1 83 c0 45 -2 82 -4 82
-3 0 -12 -10 -20 -22z"/>
<path d="M2027 1310 c-3 -11 -1 -20 4 -20 5 0 9 9 9 20 0 11 -2 20 -4 20 -2 0
-6 -9 -9 -20z"/>
<path d="M2020 1270 c0 -5 5 -10 10 -10 6 0 10 5 10 10 0 6 -4 10 -10 10 -5 0
-10 -4 -10 -10z"/>
<path d="M2195 1260 c-4 -6 -3 -10 2 -9 4 1 11 0 16 -1 12 -4 26 -7 38 -9 5 0
7 -6 3 -13 -5 -7 -3 -8 5 -3 9 5 7 12 -8 26 -22 21 -46 25 -56 9z"/>
<path d="M2027 1230 c3 -11 7 -20 9 -20 2 0 4 9 4 20 0 11 -4 20 -9 20 -5 0
-7 -9 -4 -20z"/>
<path d="M2199 1238 c0 -2 -2 -18 -4 -35 l-3 -33 56 1 c34 1 45 4 27 6 -16 3
-33 10 -37 16 -5 8 -8 8 -8 1 0 -6 -7 -11 -15 -11 -10 0 -12 4 -5 12 5 7 6 16
2 20 -4 5 1 5 11 2 9 -4 17 -4 17 -2 0 5 -40 27 -41 23z"/>
<path d="M2255 1200 c3 -5 11 -10 16 -10 6 0 7 5 4 10 -3 6 -11 10 -16 10 -6
0 -7 -4 -4 -10z"/>
<path d="M2092 1122 c0 -34 10 -51 31 -52 4 0 7 16 7 35 0 23 -6 37 -19 44
-17 10 -19 7 -19 -27z m28 -22 c0 -5 -2 -10 -4 -10 -3 0 -8 5 -11 10 -3 6 -1
10 4 10 6 0 11 -4 11 -10z"/>
<path d="M2025 1141 c-3 -5 -2 -12 3 -15 5 -3 9 1 9 9 0 17 -3 19 -12 6z"/>
<path d="M2026 1093 c-6 -14 -5 -15 5 -6 7 7 10 15 7 18 -3 3 -9 -2 -12 -12z"/>
<path d="M2090 1031 c0 -15 18 -23 25 -11 3 5 11 10 16 10 6 0 7 -4 4 -10 -9
-15 1 -12 15 5 11 13 7 15 -24 15 -20 0 -36 -4 -36 -9z"/>
<path d="M1010 3245 c0 -3 22 -58 49 -123 27 -64 55 -130 61 -146 10 -28 11
-28 31 -10 13 11 19 27 16 41 -6 30 53 88 80 79 19 -6 63 28 51 39 -5 5 -278
125 -285 125 -2 0 -3 -2 -3 -5z m141 -111 c30 -15 30 -16 13 -35 -20 -22 -36
-12 -49 29 -8 26 -4 27 36 6z"/>
<path d="M830 3030 c-16 -30 -13 -37 35 -64 l45 -27 -15 -30 c-22 -42 -40 -45
-86 -15 -32 22 -43 25 -55 15 -8 -6 -14 -17 -14 -24 0 -10 116 -91 226 -157 7
-5 18 2 27 16 16 23 15 24 -34 55 l-50 31 18 31 c25 43 35 45 82 13 34 -22 44
-24 56 -14 8 7 15 18 15 24 0 6 -54 46 -120 88 -111 72 -120 76 -130 58z"/>
<path d="M3362 2974 c-62 -42 -112 -80 -112 -85 0 -20 73 -118 84 -112 35 19
36 25 10 61 l-25 37 23 19 c22 18 23 18 48 -13 25 -29 27 -30 48 -15 l22 15
-21 31 c-22 30 -22 31 -4 44 28 20 39 17 58 -16 20 -34 26 -36 51 -17 17 13
16 17 -19 70 -21 31 -41 57 -44 57 -4 0 -57 -34 -119 -76z"/>
<path d="M651 2704 c-10 -23 -8 -26 21 -38 18 -8 52 -20 76 -27 23 -6 42 -15
42 -18 0 -4 -47 -24 -105 -46 -58 -22 -105 -42 -105 -45 0 -4 62 -28 137 -54
129 -46 137 -48 150 -30 7 10 13 21 13 25 0 4 -30 17 -67 30 -38 12 -72 24
-77 27 -5 2 38 24 95 48 57 23 104 45 104 49 0 4 -61 29 -136 55 l-137 48 -11
-24z"/>
<path d="M3537 2579 c-46 -24 -83 -94 -73 -137 16 -68 28 -84 55 -77 34 9 34
8 16 41 -22 43 -18 72 14 105 57 56 151 24 151 -51 0 -28 3 -31 28 -28 24 3
27 7 26 40 -3 102 -119 159 -217 107z"/>
<path d="M555 2352 c-13 -35 -4 -39 128 -61 72 -12 138 -21 145 -21 9 0 19 48
10 51 -2 0 -65 10 -140 23 -115 19 -138 20 -143 8z"/>
<path d="M3660 2284 c-69 -7 -133 -13 -143 -13 -15 -1 -16 -9 -11 -73 4 -40 8
-75 10 -77 2 -2 15 0 29 3 25 6 26 9 20 50 l-7 44 64 6 c181 19 168 15 168 47
0 16 -1 28 -2 28 -2 -1 -59 -7 -128 -15z"/>
<path d="M545 2151 l-29 -6 66 -55 c37 -30 67 -60 67 -66 1 -6 -26 -34 -59
-63 -33 -29 -60 -57 -60 -62 0 -10 99 -12 218 -2 78 6 82 7 82 29 0 23 -3 24
-81 24 l-81 0 33 42 33 41 -37 32 -37 32 46 7 c26 3 62 6 80 6 30 0 34 3 34
25 l0 25 -122 -1 c-68 -1 -136 -4 -153 -8z"/>
<path d="M3565 2021 c-54 -23 -79 -95 -51 -149 9 -17 24 -36 34 -41 18 -10
220 -36 226 -30 2 2 6 14 10 26 7 23 3 25 -129 39 -78 8 -95 18 -95 53 0 55
23 59 198 35 41 -6 42 -6 42 23 l0 30 -77 7 c-43 4 -91 9 -108 11 -16 2 -39 1
-50 -4z"/>
<path d="M667 1759 c-28 -15 -44 -33 -59 -67 -19 -41 -20 -52 -9 -92 7 -27 26
-59 47 -80 31 -32 39 -35 93 -35 64 0 96 16 134 68 25 32 26 101 2 151 -35 72
-128 97 -208 55z m140 -61 c45 -49 37 -109 -16 -141 -61 -36 -126 -5 -138 65
-5 32 -1 41 25 68 39 38 97 42 129 8z"/>
<path d="M3447 1677 c-9 -30 -17 -68 -17 -85 0 -47 49 -88 94 -76 17 4 30 0
45 -15 27 -27 91 -29 114 -3 22 24 61 132 51 141 -10 9 -246 91 -261 91 -5 0
-17 -24 -26 -53z m112 -33 c9 -9 -29 -74 -43 -74 -28 0 -40 27 -26 61 11 26
17 29 39 24 14 -4 28 -9 30 -11z m110 -39 c1 -2 -1 -16 -6 -32 -6 -18 -18 -29
-33 -31 -30 -5 -40 14 -28 50 9 25 14 29 37 23 14 -4 28 -8 30 -10z"/>
<path d="M3331 1408 c-37 -65 -37 -70 -12 -86 18 -12 21 -11 35 15 31 56 31
57 59 38 l26 -16 -20 -34 -20 -34 22 -12 c19 -10 25 -9 40 10 10 12 19 27 21
33 3 9 12 8 32 -5 l27 -18 -22 -36 c-22 -35 -22 -36 -4 -49 10 -8 22 -14 26
-14 8 0 69 104 69 118 0 8 -226 142 -241 142 -5 0 -22 -24 -38 -52z"/>
<path d="M846 1384 c-20 -14 -19 -17 11 -75 3 -4 -40 -29 -50 -29 -1 0 -11 16
-21 35 -21 39 -25 41 -51 21 -17 -12 -17 -16 15 -72 18 -32 34 -60 35 -62 2
-2 59 30 127 70 116 69 124 75 115 96 -13 28 -19 28 -67 -3 -48 -30 -57 -31
-65 -6 -10 32 -28 41 -49 25z"/>
<path d="M1026 1145 l-17 -55 -56 0 -56 0 44 -31 c24 -18 45 -33 47 -34 1 -1
-5 -21 -13 -45 -22 -62 -20 -64 29 -31 l43 30 39 -29 c22 -16 42 -30 46 -30 3
0 -1 23 -10 51 -18 56 -19 54 49 101 24 17 24 17 -32 17 l-55 1 -18 55 c-9 30
-18 55 -20 55 -1 0 -10 -25 -20 -55z"/>
<path d="M3245 1148 l-19 -58 -55 0 -55 0 42 -31 c47 -34 48 -39 27 -98 -8
-22 -11 -41 -7 -41 4 0 25 14 46 30 l39 30 48 -36 48 -35 -19 55 -19 56 46 35
46 35 -56 0 -55 0 -20 58 -19 57 -18 -57z"/>
<path d="M1265 883 c-7 -31 -10 -33 -49 -33 l-41 0 30 -24 c27 -22 29 -26 18
-60 l-11 -36 28 20 c34 24 44 25 60 5 20 -24 30 -18 24 14 -5 24 -1 35 22 55
l29 25 -37 1 c-33 0 -40 4 -52 33 l-14 32 -7 -32z"/>
<path d="M3030 883 c-10 -29 -17 -33 -48 -33 l-37 -1 27 -24 c24 -21 27 -28
18 -50 -16 -42 -12 -47 19 -24 l29 22 30 -22 30 -21 -10 36 c-8 29 -7 39 4 45
7 4 22 15 33 23 19 15 18 15 -22 16 -39 0 -43 2 -52 33 l-9 32 -12 -32z"/>
<path d="M1491 748 c-11 -35 -16 -38 -49 -38 l-37 0 29 -23 c27 -22 28 -26 18
-55 -13 -37 -11 -38 24 -16 24 16 27 16 56 -6 30 -22 30 -22 24 -1 -3 12 -8
29 -11 39 -3 12 5 24 28 37 l32 20 -42 3 c-39 3 -42 6 -50 40 l-9 37 -13 -37z"/>
<path d="M2801 748 c-11 -34 -16 -38 -47 -38 l-35 0 27 -23 c25 -22 26 -26 16
-56 -6 -18 -8 -31 -4 -29 4 2 19 10 34 17 24 12 30 12 46 -2 27 -25 32 -21 21
15 -5 17 -8 32 -6 33 1 1 15 11 31 23 l29 22 -40 0 c-37 0 -40 2 -49 38 l-10
37 -13 -37z"/>
<path d="M1727 723 c-11 -3 -16 -10 -13 -20 3 -8 6 -18 6 -23 0 -5 15 -6 34
-3 28 4 36 1 45 -16 10 -18 3 -30 -60 -101 -39 -45 -70 -83 -68 -84 5 -5 132
-26 152 -26 11 0 17 8 17 25 0 19 -5 25 -22 25 -51 0 -52 15 -4 69 59 67 63
111 14 141 -32 19 -62 23 -101 13z"/>
<path d="M2525 720 c-17 -6 -24 -26 -38 -97 -21 -111 -21 -115 1 -110 9 3 34
8 55 12 32 5 37 3 37 -14 0 -34 10 -49 31 -44 14 4 19 14 19 39 0 19 5 34 10
34 6 0 10 11 10 25 0 18 -5 25 -20 25 -15 0 -20 7 -20 29 0 17 -4 32 -9 35
-14 9 -44 -32 -38 -53 4 -18 -19 -39 -30 -27 -4 4 11 97 23 139 6 19 0 20 -31
7z"/>
<path d="M1998 686 c-65 -49 -61 -235 5 -251 77 -20 119 20 125 119 6 93 -27
147 -90 146 -13 0 -31 -7 -40 -14z m70 -48 c18 -18 15 -119 -4 -146 -30 -43
-64 -13 -64 58 0 81 33 123 68 88z"/>
<path d="M2243 690 c-21 -9 -31 -39 -17 -53 3 -3 17 -1 31 4 32 12 63 3 63
-19 0 -9 -23 -55 -50 -102 l-49 -85 62 -3 c86 -4 107 3 107 34 0 24 -2 25 -40
19 -22 -4 -40 -4 -40 -1 0 4 14 30 30 59 37 66 40 119 8 141 -25 18 -70 20
-105 6z"/>
<path d="M3018 3643 c7 -3 16 -2 19 1 4 3 -2 6 -13 5 -11 0 -14 -3 -6 -6z"/>
<path d="M1010 3540 c-8 -5 -12 -12 -9 -15 4 -3 12 1 19 10 14 17 11 19 -10 5z"/>
<path d="M847 3413 c-4 -3 -7 -11 -7 -17 0 -6 5 -5 12 2 6 6 9 14 7 17 -3 3
-9 2 -12 -2z"/>
<path d="M3423 3375 c-3 -9 -3 -18 -1 -21 3 -3 8 4 11 16 6 23 -1 27 -10 5z"/>
<path d="M3515 3310 c-10 -11 -16 -22 -14 -24 2 -2 12 7 22 20 22 29 17 32 -8
4z"/>
<path d="M620 3091 c0 -6 4 -13 10 -16 6 -3 7 1 4 9 -7 18 -14 21 -14 7z"/>
<path d="M450 2835 c-7 -9 -8 -15 -2 -15 5 0 12 7 16 15 3 8 4 15 2 15 -2 0
-9 -7 -16 -15z"/>
<path d="M301 1754 c0 -11 3 -14 6 -6 3 7 2 16 -1 19 -3 4 -6 -2 -5 -13z"/>
<path d="M3876 1235 c-9 -26 -7 -32 5 -12 6 10 9 21 6 23 -2 3 -7 -2 -11 -11z"/>
<path d="M580 1030 c0 -5 5 -10 10 -10 6 0 10 5 10 10 0 6 -4 10 -10 10 -5 0
-10 -4 -10 -10z"/>
<path d="M964 703 c2 -10 6 -17 10 -16 15 3 16 11 2 22 -12 10 -14 9 -12 -6z"/>
<path d="M1748 293 c7 -3 16 -2 19 1 4 3 -2 6 -13 5 -11 0 -14 -3 -6 -6z"/>
<path d="M1597 249 c7 -7 15 -10 18 -7 3 3 -2 9 -12 12 -14 6 -15 5 -6 -5z"/>
<path d="M1638 233 c7 -3 16 -2 19 1 4 3 -2 6 -13 5 -11 0 -14 -3 -6 -6z"/>
</g>
</svg>
